<?xml version="1.0" encoding="UTF-8"?>
<svg version="1.1" xmlns="http://www.w3.org/2000/svg" width="456" height="456">
<path d="M0 0 C22.03852652 18.81159856 36.46579334 41.06373377 44.3515625 68.91015625 C44.69316406 70.08835937 45.03476562 71.2665625 45.38671875 72.48046875 C52.92056498 104.36791093 46.53869956 140.38566089 29.7109375 168.21484375 C19.22380228 184.89578124 5.20171214 199.62660904 -11.6484375 209.91015625 C-12.7209375 210.59335937 -13.7934375 211.2765625 -14.8984375 211.98046875 C-42.75922794 228.94201478 -78.25061189 233.92648545 -110.03027344 226.74707031 C-117.81941729 224.77736357 -125.2980262 222.14033195 -132.6484375 218.91015625 C-133.30263672 218.62688477 -133.95683594 218.34361328 -134.63085938 218.05175781 C-164.72593234 204.76588414 -188.43262339 179.18859339 -200.51953125 148.71386719 C-202.47890077 143.51521742 -204.1350825 138.25415274 -205.6484375 132.91015625 C-205.99003906 131.73195313 -206.33164063 130.55375 -206.68359375 129.33984375 C-214.21743998 97.45240157 -207.83557456 61.43465161 -191.0078125 33.60546875 C-172.71931393 4.51560818 -145.47270495 -14.79440926 -112.6484375 -24.08984375 C-111.47023438 -24.43144531 -110.29203125 -24.77304688 -109.078125 -25.125 C-71.91216204 -33.90596927 -29.43835184 -24.14652242 0 0 Z " fill="#2CBFAE" transform="translate(308.6484375,127.08984375)"/>
<path d="M0 0 C5.28 0 10.56 0 16 0 C17.1577506 3.47325181 17.06866652 6.36067448 17 10 C17.86625 10.12375 18.7325 10.2475 19.625 10.375 C23 11 23 11 25.8125 12.4375 C29.78307997 13.13819058 30.6008833 12.31286828 33.875 10.125 C35.26431354 9.10250192 36.64421256 8.06655279 38 7 C39.7021698 8.5675518 41.38640554 10.15459784 43.0625 11.75 C44.47208984 13.07257813 44.47208984 13.07257813 45.91015625 14.421875 C48 17 48 17 47.9453125 19.1484375 C47 21 47 21 44.8125 23.875 C42.60814373 26.85684342 42.60814373 26.85684342 43.6875 30 C44.120625 30.99 44.55375 31.98 45 33 C45.36920191 34.99369031 45.71325582 36.99279077 46 39 C46.62648438 38.98839844 47.25296875 38.97679687 47.8984375 38.96484375 C48.71570313 38.95582031 49.53296875 38.94679687 50.375 38.9375 C51.59316406 38.92009766 51.59316406 38.92009766 52.8359375 38.90234375 C55 39 55 39 57 40 C57 45.28 57 50.56 57 56 C54.59454362 57.20272819 53.05003047 57.10071472 50.375 57.0625 C49.14910156 57.04896484 49.14910156 57.04896484 47.8984375 57.03515625 C47.27195312 57.02355469 46.64546875 57.01195312 46 57 C45.690625 58.2375 45.38125 59.475 45.0625 60.75 C44 65 44 65 43.28125 67 C42.88697521 69.80373185 43.8651298 70.94897043 45.4375 73.25 C46.283125 74.4875 47.12875 75.725 48 77 C44.37 80.63 40.74 84.26 37 88 C35.80375 87.13375 34.6075 86.2675 33.375 85.375 C29.92916162 83.1497843 29.92916162 83.1497843 25.875 83.625 C24.92625 84.07875 23.9775 84.5325 23 85 C21.00630969 85.36920191 19.00720923 85.71325582 17 86 C16.67 89.3 16.34 92.6 16 96 C10.72 96 5.44 96 0 96 C-0.33 92.7 -0.66 89.4 -1 86 C-2.2375 85.690625 -3.475 85.38125 -4.75 85.0625 C-9 84 -9 84 -11.078125 83.30859375 C-13.32339524 82.72477699 -13.32339524 82.72477699 -16 85 C-19 87 -19 87 -20.890625 86.91015625 C-23.82764757 85.6428854 -25.54581599 83.73892742 -27.75 81.4375 C-28.54921875 80.61121094 -29.3484375 79.78492188 -30.171875 78.93359375 C-30.77515625 78.29550781 -31.3784375 77.65742188 -32 77 C-31.42378906 76.23816406 -31.42378906 76.23816406 -30.8359375 75.4609375 C-29.35672429 73.34890581 -28.07161439 71.3473458 -27 69 C-27.5 65.83333333 -27.5 65.83333333 -29 63 C-29.36920191 61.00630969 -29.71325582 59.00720923 -30 57 C-31.98567708 57.03255208 -33.97135417 57.06510417 -35.95703125 57.09765625 C-38 57 -38 57 -41 56 C-41 50.72 -41 45.44 -41 40 C-35.555 39.505 -35.555 39.505 -30 39 C-29.87625 38.13375 -29.7525 37.2675 -29.625 36.375 C-29 33 -29 33 -27.625 30.125 C-26.87951102 26.39755512 -27.42005757 25.74412163 -29.375 22.625 C-30.23084193 21.40302249 -31.1000497 20.18986718 -32 19 C-30.45672226 17.29490284 -28.8896325 15.6113326 -27.3125 13.9375 C-26.44238281 12.99777344 -25.57226562 12.05804688 -24.67578125 11.08984375 C-22 9 -22 9 -19.2890625 9.0859375 C-17 10 -17 10 -15.0625 11.6875 C-14.0415625 12.3371875 -14.0415625 12.3371875 -13 13 C-10.04199472 12.29231642 -10.04199472 12.29231642 -7 11 C-5.00630969 10.63079809 -3.00720923 10.28674418 -1 10 C-1.020625 8.906875 -1.04125 7.81375 -1.0625 6.6875 C-1 3 -1 3 0 0 Z " fill="#565C6E" transform="translate(220,180)"/>
<path d="M0 0 C17.84870906 14.08064825 31.01453124 34.17811327 34.1875 56.96875 C36.26372057 79.23907653 31.75896176 101.87051456 17.625 119.71875 C17.12871094 120.27046875 16.63242187 120.8221875 16.12109375 121.390625 C15.01314534 122.94137936 15.01314534 122.94137936 15.25 124.90625 C16.54027109 127.74484639 18.37861626 129.21476374 20.75 131.21875 C21.57628906 131.92515625 22.40257812 132.6315625 23.25390625 133.359375 C23.89199219 133.89046875 24.53007812 134.4215625 25.1875 134.96875 C21.84748686 137.19542543 19.3044739 137.79700616 15.40234375 138.6953125 C14.74545059 138.84785492 14.08855743 139.00039734 13.41175842 139.15756226 C12.02639266 139.47805279 10.64033967 139.79558525 9.25366211 140.11035156 C7.12784249 140.5931045 5.00424898 141.08480482 2.88085938 141.578125 C-7.49185083 143.96875 -7.49185083 143.96875 -9.8125 143.96875 C-8.8250055 117.79220757 -8.8250055 117.79220757 -7.8125 107.96875 C-4.5298068 109.45951434 -1.88172559 111.35495321 0.9375 113.59375 C1.73671875 114.22539062 2.5359375 114.85703125 3.359375 115.5078125 C4.26429688 116.23097656 4.26429688 116.23097656 5.1875 116.96875 C5.43757813 116.44539062 5.68765625 115.92203125 5.9453125 115.3828125 C7.21398014 112.91728859 8.59833382 110.53578971 10.00537109 108.1472168 C13.64193508 101.94322184 16.93594872 95.83005626 19.1875 88.96875 C19.41179687 88.31519531 19.63609375 87.66164063 19.8671875 86.98828125 C25.17565405 68.19049215 20.05649338 47.48134166 11 30.90625 C0.86723439 14.25024472 -15.02148786 3.35043836 -33.7265625 -1.83984375 C-45.71105926 -4.23344159 -58.75387988 -3.58720098 -70.8125 -2.03125 C-72.31826582 -6.54854745 -72.95155625 -9.419267 -71.8125 -14.03125 C-47.61278904 -20.37871517 -20.14831801 -14.55156301 0 0 Z " fill="#EAEEEC" transform="translate(278.8125,159.03125)"/>
<path d="M0 0 C-0.73169558 11.73236009 -2.42705768 23.35756331 -4 35 C-7.41059403 33.39464713 -9.61792484 31.59481099 -12.25 28.875 C-12.95640625 28.15054688 -13.6628125 27.42609375 -14.390625 26.6796875 C-14.92171875 26.12539062 -15.4528125 25.57109375 -16 25 C-20.08835266 26.36278422 -21.03993268 29.0364557 -23 32.625 C-23.34289062 33.22957031 -23.68578125 33.83414063 -24.0390625 34.45703125 C-32.95491422 50.41708642 -35.95592394 68.59187846 -31.8125 86.5625 C-31.25446776 88.38973114 -30.65018842 90.20349544 -30 92 C-29.64808594 92.99 -29.29617187 93.98 -28.93359375 95 C-20.91588026 115.7455029 -6.79794859 128.93191956 13.1796875 137.79345703 C21.13951944 141.13257377 28.77588783 142.32839687 37.375 142.1875 C38.19846924 142.18105469 39.02193848 142.17460937 39.87036133 142.16796875 C45.94587905 142.09156967 51.96812811 141.75906702 58 141 C59.47075246 145.41225737 60.36884358 148.48281619 59 153 C52.9697866 154.74869249 47.5771164 155.32003619 41.3125 155.25 C40.43400391 155.24323242 39.55550781 155.23646484 38.65039062 155.22949219 C15.30567712 154.86125203 -5.41251257 146.41132707 -22 130 C-39.5820122 111.52122366 -46.76998699 88.89369814 -46.3046875 63.76953125 C-45.5794914 45.44484463 -37.10063551 29.89843738 -27 15 C-27.5775 14.44570312 -28.155 13.89140625 -28.75 13.3203125 C-29.4925 12.59585938 -30.235 11.87140625 -31 11.125 C-31.7425 10.40570313 -32.485 9.68640625 -33.25 8.9453125 C-35 7 -35 7 -35 5 C-31.14198294 4.27994916 -27.28253299 3.56819129 -23.42163086 2.86376953 C-21.46974988 2.50591268 -19.5190411 2.14168107 -17.56835938 1.77734375 C-15.70727539 1.43896484 -15.70727539 1.43896484 -13.80859375 1.09375 C-12.67220459 0.88427734 -11.53581543 0.67480469 -10.36499023 0.45898438 C-6.8688956 -0.01788263 -3.52400923 -0.07835485 0 0 Z " fill="#E9EDEC" transform="translate(189,158)"/>
<path d="M0 0 C5.64521663 3.11153673 9.45508606 7.9042981 11.37890625 14.08203125 C12.68615772 21.05862596 11.85741804 26.48828831 8.44921875 32.7578125 C5.00376687 37.43095413 0.19671858 40.24692714 -5.25 42.0625 C-12.75482339 42.83222548 -18.48227728 41.25303647 -24.9375 37.5 C-29.56065858 32.62694096 -32.50145456 26.82900875 -32.875 20.0625 C-32.52562189 14.36494923 -30.66653295 9.62573136 -27.25 5.0625 C-19.13428233 -1.94459074 -10.09028072 -4.44216594 0 0 Z " fill="#2CBDAD" transform="translate(238.25,207.9375)"/>
</svg>
